<svg id="Lag_1" data-name="Lag 1" xmlns="http://www.w3.org/2000/svg" viewBox="0 0 533.3 533.3">
  <defs>
    <style>
      .cls-1 {
        fill: #8fccbe;
      }

      .cls-2 {
        fill: #2c3e50;
      }

      .cls-3 {
        fill: none;
        stroke: #2c3e50;
        stroke-linecap: round;
        stroke-linejoin: round;
        stroke-width: 21.33px;
      }
    </style>
  </defs>
  <title>emojis_ver5_tilweb</title>
  <g>
    <circle class="cls-1" cx="266.7" cy="266.7" r="256"/>
    <path class="cls-2" d="M266.7,533.3A266.65,266.65,0,0,1,78.1,78.1a266.77,266.77,0,0,1,377.2,0A266.6,266.6,0,0,1,266.7,533.3Zm0-512C131.4,21.3,21.4,131.4,21.4,266.6S131.4,512,266.7,512,512,401.9,512,266.7,401.9,21.3,266.7,21.3Z"/>
    <circle class="cls-2" cx="362.7" cy="194.1" r="40.5"/>
    <circle class="cls-2" cx="170.7" cy="194.1" r="40.5"/>
    <path class="cls-3" d="M123.7,418.1a153.29,153.29,0,0,1,284.8,1.1"/>
  </g>
</svg>
