<svg xmlns="http://www.w3.org/2000/svg" id="Layer_1" data-name="Layer 1" viewBox="0 0 64 64"><defs><style>.cls-1{fill:none;stroke:#006c5c;stroke-linecap:round;stroke-linejoin:round;stroke-width:2px}.cls-2{fill:#37a849}</style></defs><title/><path d="M24,11H17a4,4,0,0,0-4,4V54a4,4,0,0,0,4,4H47a4,4,0,0,0,4-4V15a4,4,0,0,0-4-4H40" class="cls-1"/><circle cx="32" cy="6" r="3" class="cls-1"/><path d="M28,9h8a5,5,0,0,1,5,5v0a0,0,0,0,1,0,0H23a0,0,0,0,1,0,0v0A5,5,0,0,1,28,9Z" class="cls-1"/><circle cx="23" cy="27" r="2" class="cls-2"/><line x1="30" x2="42" y1="27" y2="27" class="cls-1"/><circle cx="23" cy="34" r="2" class="cls-2"/><line x1="30" x2="42" y1="34" y2="34" class="cls-1"/><circle cx="23" cy="41" r="2" class="cls-2"/><line x1="30" x2="42" y1="41" y2="41" class="cls-1"/></svg>