<svg xmlns="http://www.w3.org/2000/svg" id="Lag_1" data-name="Lag 1" viewBox="0 0 533.3 533.3"><defs><style>.cls-1{fill:#8fccbe}.cls-2{fill:#2c3e50}.cls-3{fill:none;stroke:#2c3e50;stroke-linecap:round;stroke-linejoin:round;stroke-width:21.33px}</style></defs><title>emojis_ver5_tilweb</title><g><circle cx="266.65" cy="266.7" r="256" class="cls-1"/><path d="M266.65,533.3A266.65,266.65,0,0,1,78.05,78.1a266.77,266.77,0,0,1,377.2,0,266.6,266.6,0,0,1-188.6,455.2Zm0-512c-135.3,0-245.3,110.1-245.3,245.3S131.35,512,266.65,512,512,401.9,512,266.7,401.85,21.3,266.65,21.3Z" class="cls-2"/><path d="M408.45,323.2a153.29,153.29,0,0,1-284.8-1.1" class="cls-3"/><circle cx="362.65" cy="194.1" r="40.5" class="cls-2"/><circle cx="170.65" cy="194.1" r="40.5" class="cls-2"/></g></svg>